Coordinates
version=1
nRows=11
nColumns=63
inDegrees=yes

Units are S.I. units (second, meters, Newtons, ...)
If the header above contains a line with 'inDegrees', this indicates whether rotational values are in degrees (yes) or radians (no).

endheader
time	pelvis_tilt	pelvis_list	pelvis_rotation	pelvis_tx	pelvis_ty	pelvis_tz	hip_flexion_r	hip_adduction_r	hip_rotation_r	knee_angle_r	knee_angle_r_beta	ankle_angle_r	subtalar_angle_r	mtp_angle_r	hip_flexion_l	hip_adduction_l	hip_rotation_l	knee_angle_l	knee_angle_l_beta	ankle_angle_l	subtalar_angle_l	mtp_angle_l	L5_S1_Flex_Ext	L5_S1_Lat_Bending	L5_S1_axial_rotation	L4_L5_Flex_Ext	L4_L5_Lat_Bending	L4_L5_axial_rotation	L3_L4_Flex_Ext	L3_L4_Lat_Bending	L3_L4_axial_rotation	L2_L3_Flex_Ext	L2_L3_Lat_Bending	L2_L3_axial_rotation	L1_L2_Flex_Ext	L1_L2_Lat_Bending	L1_L2_axial_rotation	L1_T12_Flex_Ext	L1_T12_Lat_Bending	L1_T12_axial_rotation	Abs_r3	Abs_r2	Abs_r1	Abs_t1	Abs_t2	neck_flexion	neck_bending	neck_rotation	arm_flex_r	arm_add_r	arm_rot_r	elbow_flex_r	pro_sup_r	wrist_flex_r	wrist_dev_r	arm_flex_l	arm_add_l	arm_rot_l	elbow_flex_l	pro_sup_l	wrist_flex_l	wrist_dev_l
2.847458	3.207846	-1.128570	96.286914	0.150685	0.883889	0.357666	-8.251125	5.870236	2.968045	1.184215	0.020668	22.412498	-16.272969	0.000000	-7.968908	-7.099310	21.834423	0.594259	0.010372	26.703286	-9.843697	0.000000	-0.078143	0.681927	-1.269256	-0.145118	0.906963	-1.348584	-0.128380	1.658038	-1.348584	-0.089309	1.658038	-1.110599	-0.072563	1.390586	-1.031270	-0.044651	1.056306	-0.951942	-0.558164	7.714100	-7.059219	0.000000	0.000000	25.973585	-1.775733	-4.218487	-2.560953	-17.598689	105.786848	13.794168	27.715030	-4.243096	-17.176790	-0.541144	-14.089308	84.675623	19.782164	47.983165	-9.928832	-7.644943
2.864407	3.306396	-0.970196	96.275211	0.150582	0.883866	0.357659	-8.440648	5.986435	3.160508	1.075777	0.018776	22.432090	-16.347975	0.000000	-8.150211	-7.219578	21.906046	0.594221	0.010371	26.485718	-10.175046	0.000000	-0.083048	0.691252	-1.243147	-0.154228	0.919365	-1.320844	-0.136439	1.680709	-1.320844	-0.094915	1.680709	-1.087754	-0.077118	1.409600	-1.010057	-0.047454	1.070749	-0.932360	-0.593202	7.819576	-6.914012	0.000000	0.000000	25.881544	-1.726144	-4.117048	-2.941308	-18.170432	99.341032	15.157600	32.054805	-4.592547	-16.431589	0.107580	-13.595073	89.327826	19.091398	44.890987	-9.612409	-7.446565
2.881356	3.388538	-0.793250	96.267046	0.150469	0.883882	0.357631	-8.646558	6.088900	3.307330	0.984152	0.017177	22.433737	-16.424819	0.000000	-8.349869	-7.325110	22.037082	0.593011	0.010350	26.281625	-10.536633	0.000000	-0.087942	0.698488	-1.218469	-0.163318	0.928989	-1.294624	-0.144480	1.698304	-1.294624	-0.100509	1.698304	-1.066161	-0.081663	1.424357	-0.990006	-0.050250	1.081958	-0.913852	-0.628163	7.901436	-6.776760	0.000000	0.000000	25.768280	-1.686843	-4.019870	-3.401147	-18.702592	92.960609	16.435043	36.237138	-4.932169	-15.732197	0.807676	-13.080396	94.667950	18.338557	40.710047	-9.198693	-7.432236
2.898305	3.485413	-0.618634	96.274970	0.150363	0.883926	0.357609	-8.848277	6.211241	3.402628	0.896746	0.015651	22.411801	-16.477626	0.000000	-8.536697	-7.452330	22.224768	0.589289	0.010285	26.108306	-10.890988	0.000000	-0.090799	0.706931	-1.203269	-0.168623	0.940219	-1.278473	-0.149174	1.718833	-1.278473	-0.103774	1.718833	-1.052860	-0.084316	1.441574	-0.977656	-0.051883	1.095036	-0.902452	-0.648569	7.996948	-6.692219	0.000000	0.000000	25.638057	-1.679283	-3.951299	-3.838788	-19.205561	87.082209	17.625221	40.197659	-5.302049	-15.135556	1.530291	-12.567347	100.498126	17.553441	35.432603	-8.673898	-7.626096
2.915254	3.557763	-0.440417	96.286345	0.150286	0.884020	0.357595	-9.051948	6.312259	3.451488	0.823105	0.014366	22.372553	-16.538907	0.000000	-8.722126	-7.555018	22.459870	0.583054	0.010176	25.958149	-11.263362	0.000000	-0.093872	0.712355	-1.186844	-0.174329	0.947433	-1.261022	-0.154222	1.732021	-1.261022	-0.107286	1.732021	-1.038489	-0.087169	1.452635	-0.964311	-0.053638	1.103438	-0.890133	-0.670516	8.058306	-6.600873	0.000000	0.000000	25.478271	-1.670958	-3.922938	-4.313230	-19.627308	81.703172	18.663166	43.648083	-5.623468	-14.618687	2.316412	-12.057303	106.891486	16.740184	29.234373	-8.094829	-8.071265
2.932203	3.598268	-0.272478	96.305422	0.150328	0.884109	0.357570	-9.250218	6.388607	3.452473	0.753779	0.013156	22.338493	-16.561721	0.000000	-8.890084	-7.633324	22.687619	0.576503	0.010062	25.881263	-11.532515	0.000000	-0.096845	0.712159	-1.178922	-0.179851	0.947172	-1.252605	-0.159106	1.731544	-1.252605	-0.110684	1.731544	-1.031557	-0.089930	1.452235	-0.957874	-0.055337	1.103135	-0.884192	-0.691753	8.056088	-6.556813	0.000000	0.000000	25.312770	-1.660949	-3.943706	-4.685249	-19.947116	77.607270	19.482818	45.912851	-5.818586	-14.270138	2.789421	-11.728249	110.980415	16.298745	25.103483	-7.649277	-8.076424
2.949153	3.609764	-0.119800	96.303315	0.150472	0.884199	0.357554	-9.435420	6.434111	3.436002	0.692280	0.012083	22.289486	-16.564468	0.000000	-9.039756	-7.680138	22.896119	0.567917	0.009912	25.868409	-11.733422	0.000000	-0.099892	0.708704	-1.167126	-0.185509	0.942577	-1.240072	-0.164112	1.723144	-1.240072	-0.114166	1.723144	-1.021235	-0.092759	1.445190	-0.948290	-0.057078	1.097783	-0.875345	-0.713516	8.017006	-6.491205	0.000000	0.000000	25.138903	-1.633137	-3.938144	-5.067488	-20.159180	74.150512	20.137744	47.686920	-5.865330	-13.959795	3.191471	-11.442708	114.635821	15.973928	21.397339	-7.199913	-8.017459
2.966102	3.587871	0.013766	96.277761	0.150746	0.884275	0.357553	-9.603579	6.445084	3.426600	0.638691	0.011147	22.228812	-16.565587	0.000000	-9.168723	-7.690609	23.129545	0.557535	0.009731	25.896463	-11.945175	0.000000	-0.103490	0.701262	-1.151321	-0.192192	0.932678	-1.223279	-0.170024	1.705048	-1.223279	-0.118279	1.705048	-1.007406	-0.096101	1.430013	-0.935449	-0.059134	1.086254	-0.863491	-0.739221	7.932812	-6.403304	0.000000	0.000000	24.961333	-1.590687	-3.921493	-5.431927	-20.244089	71.468370	20.599191	48.814055	-5.743701	-13.712817	3.522503	-11.214663	117.733308	15.762141	18.269876	-6.751185	-7.883878
2.983051	3.532972	0.114916	96.225524	0.151167	0.884307	0.357579	-9.738283	6.420875	3.426929	0.594500	0.010376	22.180844	-16.546607	0.000000	-9.263060	-7.664901	23.343388	0.548144	0.009567	25.961199	-12.119166	0.000000	-0.107010	0.689866	-1.133031	-0.198728	0.917522	-1.203846	-0.175807	1.677341	-1.203846	-0.122302	1.677341	-0.991402	-0.099370	1.406775	-0.920588	-0.061146	1.068603	-0.849773	-0.764362	7.803904	-6.301579	0.000000	0.000000	24.818365	-1.546546	-3.879107	-5.749105	-20.161310	69.974574	20.757952	49.094708	-5.501820	-13.545508	3.765300	-11.039330	120.094652	15.645612	15.833013	-6.317699	-7.661535
3.000000	3.431795	0.208487	96.205795	0.151645	0.884309	0.357655	-9.865444	6.357684	3.412004	0.554847	0.009684	22.143683	-16.566192	0.000000	-9.340107	-7.597747	23.627713	0.536407	0.009362	26.042256	-12.315140	0.000000	-0.113641	0.672592	-1.115754	-0.211042	0.894547	-1.185488	-0.186700	1.635339	-1.185488	-0.129880	1.635339	-0.976284	-0.105527	1.371549	-0.906550	-0.064934	1.041844	-0.836815	-0.811725	7.608491	-6.205487	0.000000	0.000000	24.670778	-1.494654	-3.917341	-6.010671	-19.893358	69.727593	20.595890	48.416183	-5.131622	-13.543056	4.015532	-10.946737	122.052888	15.603885	13.992581	-5.921532	-7.422981
3.016949	3.314569	0.258419	96.132189	0.152251	0.884257	0.357803	-9.936555	6.268850	3.433899	0.527401	0.009205	22.133311	-16.547584	0.000000	-9.375703	-7.502653	23.905782	0.528254	0.009220	26.105363	-12.578782	0.000000	-0.119214	0.654538	-1.086236	-0.221393	0.870536	-1.154125	-0.195857	1.591444	-1.154125	-0.136250	1.591444	-0.950456	-0.110702	1.334734	-0.882566	-0.068119	1.013880	-0.814677	-0.851534	7.404267	-6.041316	0.000000	0.000000	24.579659	-1.484611	-3.929952	-6.189399	-19.444512	71.073831	20.051025	46.521443	-4.630958	-13.674133	4.288982	-10.895880	123.792330	15.573839	12.400559	-5.589625	-7.214835
